<?xml version="1.0" encoding="iso-8859-1"?>
<!-- Generator: Adobe Illustrator 18.0.0, SVG Export Plug-In . SVG Version: 6.00 Build 0)  -->
<!DOCTYPE svg PUBLIC "-//W3C//DTD SVG 1.1//EN" "http://www.w3.org/Graphics/SVG/1.1/DTD/svg11.dtd">
<svg version="1.1" id="Capa_1" xmlns="http://www.w3.org/2000/svg" xmlns:xlink="http://www.w3.org/1999/xlink" x="0px" y="0px"
	 viewBox="0 0 297 297" style="enable-background:new 0 0 297 297;" xml:space="preserve">
<g>
	<path d="M276.07,99.311c-15.155-8.789-58.949-32.95-58.949-32.95c-0.149-0.085-0.301-0.166-0.457-0.243
		c-10.592-5.295-23.532-1.86-30.1,7.994L170.63,98.013h-44.26l-15.935-23.902c-6.567-9.852-19.507-13.29-30.1-7.994
		c-0.155,0.077-0.307,0.158-0.457,0.243c0,0-42.835,23.911-58.949,32.95c-4.377,2.455-9.056,4.953-12.529,8.683
		c-5.906,6.342-8.94,14.938-8.323,23.584v0.001l5.192,72.682c1.165,16.317,14.891,29.1,31.252,29.1h66.471
		c14.404,0,26.902-9.759,30.395-23.732l6.428-25.712h17.365l6.428,25.712c3.493,13.972,15.992,23.732,30.395,23.732h66.471
		c16.36,0,30.087-12.782,31.252-29.099l5.192-72.684c0.617-8.645-2.416-17.241-8.323-23.584
		C285.126,104.264,280.411,101.828,276.07,99.311z M203.187,85.193c0.96-1.437,2.814-1.97,4.386-1.282l24.893,14.102H194.64
		L203.187,85.193z M89.427,83.911c1.572-0.69,3.427-0.155,4.386,1.282l8.547,12.82H64.535L89.427,83.911z M276.995,130.154
		l-5.192,72.684c-0.422,5.913-5.396,10.545-11.325,10.545h-66.471c-5.22,0-9.749-3.537-11.015-8.601l-8.32-33.278
		c-1.111-4.446-5.107-7.566-9.69-7.566h-32.963c-4.584,0-8.579,3.12-9.69,7.566l-8.32,33.278c-1.266,5.064-5.795,8.601-11.015,8.601
		H36.523c-5.929,0-10.903-4.631-11.325-10.546l-5.192-72.682c-0.227-3.179,0.845-6.215,3.016-8.548
		c2.171-2.331,5.122-3.616,8.309-3.616H265.67c3.187,0,6.138,1.285,8.309,3.616C276.15,123.94,277.222,126.975,276.995,130.154z"/>
	<path d="M73.157,148.028c3.901-3.901,3.901-10.226,0-14.127c-3.902-3.9-10.225-3.9-14.127,0l-24.722,24.722
		c-3.901,3.901-3.901,10.226,0,14.127c1.951,1.95,4.507,2.925,7.063,2.925c2.557,0,5.112-0.975,7.063-2.925L73.157,148.028z"/>
	<path d="M108.474,133.901L50.79,191.586c-3.901,3.901-3.901,10.226,0,14.127c1.951,1.95,4.507,2.925,7.063,2.925
		c2.557,0,5.112-0.975,7.063-2.925l57.684-57.684c3.901-3.901,3.901-10.226,0-14.127
		C118.699,130.001,112.376,130.001,108.474,133.901z"/>
</g>
<g>
</g>
<g>
</g>
<g>
</g>
<g>
</g>
<g>
</g>
<g>
</g>
<g>
</g>
<g>
</g>
<g>
</g>
<g>
</g>
<g>
</g>
<g>
</g>
<g>
</g>
<g>
</g>
<g>
</g>
</svg>
